<svg version="1.1" id="Layer_1" xmlns="http://www.w3.org/2000/svg" xmlns:xlink="http://www.w3.org/1999/xlink" x="0px" y="0px"
	 width="100%" viewBox="0 0 800 1008" enable-background="new 0 0 800 1008" xml:space="preserve">
<path fill="#000000" opacity="1.000000" stroke="none" 
	d="
M526.759277,286.615326 
	C521.924133,288.393524 519.798340,283.960541 516.380127,282.705322 
	C511.378540,280.868652 512.509338,277.177521 513.483154,273.244843 
	C517.598145,256.627991 521.515076,239.962067 525.490356,223.310730 
	C525.834656,221.868744 525.842285,220.302368 527.577820,219.025772 
	C531.565552,220.073578 534.922058,222.823334 538.403564,225.201172 
	C540.194092,226.424072 539.259644,228.531784 538.821472,230.299515 
	C536.181580,240.948593 533.559875,251.602188 530.896973,262.245514 
	C530.616638,263.366180 530.161133,264.432831 530.830261,266.347839 
	C537.110474,261.157745 543.090454,256.218109 549.067749,251.275223 
	C552.531250,248.411026 556.130737,245.691437 559.405334,242.625092 
	C561.829102,240.355453 563.782166,240.581039 566.433472,242.249802 
	C575.855957,248.180466 574.322571,246.182114 572.089966,255.801178 
	C569.652832,266.301117 566.966003,276.743103 565.125549,287.891754 
	C571.642090,282.448456 578.161682,277.008789 584.673218,271.559479 
	C586.460266,270.063934 588.209534,268.523102 589.999512,267.031097 
	C597.795593,260.532837 600.615723,260.800079 608.286011,269.215149 
	C601.388489,275.143280 594.523926,281.095764 587.600769,286.979340 
	C579.738098,293.661438 571.742859,300.190125 563.976196,306.981018 
	C561.410645,309.224213 559.367188,309.476471 556.504883,307.558838 
	C545.871887,300.435364 546.766174,303.806915 549.705994,291.313507 
	C551.906128,281.963348 554.140442,272.621216 555.559875,262.665558 
	C546.053040,270.582458 536.546204,278.499390 526.759277,286.615326 
z"/>
<path fill="#000000" opacity="1.000000" stroke="none" 
	d="
M159.390091,454.016785 
	C161.852478,463.996490 159.097107,473.285980 157.943039,482.651672 
	C157.557251,485.782318 156.586990,488.860352 156.408905,491.992279 
	C156.183060,495.963928 154.125305,496.665436 150.761887,496.128204 
	C137.289536,493.976349 123.808762,491.876984 110.329224,489.770294 
	C106.713982,489.205292 103.082191,488.740326 99.476997,488.119171 
	C97.376175,487.757172 95.636887,487.029297 96.121765,484.217651 
	C97.788124,474.555115 98.877312,464.764313 101.089226,455.231873 
	C103.800735,443.546387 110.795143,434.790894 122.899124,432.235657 
	C134.629654,429.759216 145.452972,432.392334 153.669006,442.044922 
	C156.534103,445.411011 158.325897,449.311310 159.390091,454.016785 
M147.727158,462.790314 
	C146.896713,453.423889 141.457062,447.801605 131.951263,446.484711 
	C123.472221,445.310120 116.445946,449.641052 113.281906,458.040009 
	C111.745369,462.118835 111.828453,466.525452 110.844284,470.691559 
	C110.068016,473.977631 111.522629,474.947144 114.155708,475.364655 
	C123.158897,476.792236 132.179367,478.113922 141.170929,479.610199 
	C144.593613,480.179779 146.220505,478.735199 146.506363,475.520691 
	C146.858185,471.564484 148.105698,467.702148 147.727158,462.790314 
z"/>
<path fill="#000000" opacity="1.000000" stroke="none" 
	d="
M683.783142,415.638550 
	C688.745239,414.578644 693.301331,413.619049 697.836792,412.569946 
	C699.837219,412.107269 701.630127,412.070679 702.084839,414.544281 
	C704.152588,425.794281 708.307861,436.665588 708.332336,448.284149 
	C708.364380,463.466461 699.729431,474.428894 685.138550,477.845551 
	C671.107605,481.131042 658.191895,474.929565 651.651611,461.468079 
	C647.011536,451.917664 646.187561,441.291962 643.736816,431.132141 
	C642.213562,424.817505 642.457825,424.755280 648.790955,423.352753 
	C660.316467,420.800476 671.842773,418.252350 683.783142,415.638550 
M677.535889,432.219666 
	C671.081177,433.666473 664.626465,435.113281 657.762695,436.651794 
	C658.914856,443.014343 659.641846,448.963928 662.294373,454.368317 
	C665.973328,461.863953 673.329834,465.118286 681.520691,463.235321 
	C690.731079,461.117950 695.589111,455.345306 695.754639,446.535553 
	C695.846924,441.628540 694.405823,436.998077 693.467834,432.277069 
	C692.998291,429.914001 691.531982,428.976318 689.061584,429.600128 
	C685.513123,430.496185 681.928711,431.249786 677.535889,432.219666 
z"/>
<path fill="#000000" opacity="1.000000" stroke="none" 
	d="
M165.774033,693.905762 
	C162.641800,696.554016 160.578613,696.488281 158.322067,692.979065 
	C151.837051,682.894104 145.168045,672.916199 138.222504,663.144165 
	C135.460938,659.258850 136.783234,657.520020 140.164993,655.330444 
	C143.534241,653.148804 145.870209,651.988159 148.552902,656.422668 
	C152.851089,663.527649 157.753632,670.266968 162.464752,677.255859 
	C165.837601,676.739807 167.969620,674.515564 170.346115,672.838745 
	C172.641708,671.219116 171.455521,669.366333 170.297562,667.632446 
	C166.781677,662.367920 163.411804,656.998291 159.711609,651.866821 
	C156.583588,647.528870 160.340042,646.511597 162.734299,644.733398 
	C165.161301,642.930908 167.218857,641.498291 169.566833,645.283264 
	C173.580505,651.753357 178.095215,657.912659 182.198151,663.908264 
	C182.971848,663.908264 183.165588,663.964966 183.301193,663.900085 
	C193.905304,658.829407 193.942459,658.702637 187.500443,649.108765 
	C184.064133,643.991211 180.711090,638.814209 177.141403,633.791260 
	C175.154617,630.995605 176.486069,629.309631 178.845901,628.312500 
	C181.344330,627.256775 183.714539,622.292419 186.715378,626.520325 
	C195.083282,638.310059 202.960190,650.448242 211.489685,663.130920 
	C196.060913,673.512085 181.065735,683.601501 165.774033,693.905762 
z"/>
<path fill="#000000" opacity="1.000000" stroke="none" 
	d="
M566.574402,674.610962 
	C569.889404,670.655884 572.043457,671.488647 574.910645,675.090271 
	C585.682434,688.621277 596.672791,701.984985 607.869629,715.166565 
	C611.083618,718.950256 610.898010,721.433838 606.731873,723.717346 
	C604.030212,725.198059 602.527344,729.576721 598.472656,726.922485 
	C591.098450,740.085449 580.853516,745.683105 570.148743,742.689331 
	C559.776062,739.788513 550.933472,728.618713 550.948181,718.435486 
	C550.964111,707.421692 559.154785,698.174133 571.768677,695.236267 
	C570.578857,691.450989 567.529602,689.040527 565.241211,686.167542 
	C560.080261,679.688232 560.004822,679.748352 566.574402,674.610962 
M573.098755,728.631287 
	C579.959717,730.775696 585.508606,728.531616 587.974182,722.615234 
	C590.223267,717.218384 587.085510,710.054993 581.211365,707.175903 
	C575.978516,704.611084 569.884705,706.332886 566.784241,711.252197 
	C563.327515,716.736755 565.367004,722.906738 573.098755,728.631287 
z"/>
<path fill="#000000" opacity="1.000000" stroke="none" 
	d="
M664.321777,376.847076 
	C657.737976,392.222900 641.997864,398.483917 629.028442,391.244019 
	C621.441711,387.008942 616.992126,378.830902 617.253357,369.602173 
	C613.765198,369.428772 607.600037,362.668396 607.908752,359.361938 
	C608.057190,357.772003 609.384583,357.199768 610.483582,356.540039 
	C626.620056,346.853668 642.790894,337.224518 658.916077,327.519440 
	C661.106628,326.201080 662.349365,326.637787 663.825806,328.700836 
	C670.155151,337.544556 670.197632,337.618622 661.029602,343.024017 
	C658.032593,344.791016 655.033386,346.554504 651.518799,348.623596 
	C662.591064,355.173676 667.302795,364.147247 664.321777,376.847076 
M633.747498,359.180725 
	C627.568420,364.247955 626.267029,370.269379 630.221924,375.492828 
	C633.991577,380.471619 640.463013,381.337402 646.214722,377.632355 
	C651.789062,374.041595 653.540100,368.058441 650.633240,362.534912 
	C647.602844,356.776550 641.613892,355.388458 633.747498,359.180725 
z"/>
<path fill="#000000" opacity="1.000000" stroke="none" 
	d="
M120.157288,571.799072 
	C114.029350,564.075378 112.349113,555.859741 116.011330,546.165283 
	C110.166588,547.024658 104.907761,547.524658 99.784836,548.645630 
	C96.273834,549.414001 95.345085,547.869995 94.815094,544.989136 
	C92.989807,535.067566 92.982544,535.223083 102.949615,533.614929 
	C119.180084,530.996155 135.396301,528.274414 151.570343,525.331116 
	C155.457611,524.623779 157.226929,525.434021 157.422989,529.495972 
	C157.588196,532.918274 160.323959,536.541626 156.335587,539.456604 
	C164.180054,549.307556 165.496216,563.632080 154.420410,573.161438 
	C144.407288,581.776428 130.206406,581.195129 120.157288,571.799072 
M140.056320,542.304382 
	C138.403107,542.370361 136.706467,542.219421 135.104294,542.540283 
	C128.558060,543.851074 124.416321,549.761597 125.829575,555.574524 
	C127.282265,561.549500 131.824646,564.994751 137.773773,564.633728 
	C144.170532,564.245483 148.916122,560.503479 149.657715,555.262939 
	C150.580734,548.740295 147.803375,544.670898 140.056320,542.304382 
z"/>
<path fill="#000000" opacity="1.000000" stroke="none" 
	d="
M341.767487,230.282791 
	C354.463104,247.180771 347.700470,267.019073 328.393341,270.727539 
	C325.177094,271.345337 322.191620,270.581696 318.414703,269.665161 
	C320.458527,276.252045 322.302277,282.194122 324.149139,288.146210 
	C320.918793,290.757202 317.179962,291.147095 313.803497,292.394531 
	C311.482605,293.251984 310.464386,291.910522 309.813477,289.923859 
	C304.016418,272.230255 298.236053,254.531006 292.353851,236.865677 
	C291.466858,234.201874 292.186035,232.475769 294.769318,232.003876 
	C298.479462,231.326126 302.151093,227.001511 305.916626,231.761337 
	C316.592499,220.162521 330.752411,219.524689 341.767487,230.282791 
M317.944885,236.293976 
	C310.985260,240.272644 309.235443,247.007858 313.338318,254.024918 
	C316.655609,259.698425 323.144165,261.294891 328.807343,257.831055 
	C333.542389,254.934906 335.159851,249.209808 332.900269,243.343948 
	C330.431061,236.933868 325.673126,234.487411 317.944885,236.293976 
z"/>
<path fill="#000000" opacity="1.000000" stroke="none" 
	d="
M370.111237,774.693970 
	C374.208649,775.041382 377.854523,775.324524 381.486908,775.728699 
	C384.437134,776.057007 385.687439,774.915833 385.837524,771.876282 
	C386.050323,767.566711 386.691010,763.278931 387.118256,758.978821 
	C387.440887,755.731873 388.980225,754.281677 392.402710,754.867493 
	C402.664032,756.623840 402.724518,754.265381 401.451874,765.115173 
	C399.690948,780.128113 398.605927,795.219788 397.166626,810.271484 
	C396.604523,816.149963 395.891632,816.456238 389.845093,815.785339 
	C378.440704,814.519958 367.021362,813.361450 355.587463,812.407288 
	C352.100555,812.116333 349.909515,811.072083 350.957764,807.326965 
	C351.779968,804.389465 350.013336,799.325256 356.555298,800.417419 
	C363.261505,801.537048 370.124359,801.684387 376.875824,802.579956 
	C380.961273,803.121887 383.320282,802.054932 383.488190,797.657959 
	C383.558014,795.829102 383.596558,793.993713 383.789520,792.176208 
	C384.079224,789.447571 382.841034,788.168579 380.198578,787.924438 
	C374.402252,787.388916 368.605957,786.844788 362.819580,786.213135 
	C359.681152,785.870544 356.327972,785.974915 357.145813,780.900635 
	C358.330353,773.550964 358.349213,773.283203 364.209259,774.027222 
	C366.022614,774.257446 367.838928,774.464417 370.111237,774.693970 
z"/>
<path fill="#000000" opacity="1.000000" stroke="none" 
	d="
M680.844849,600.577026 
	C683.593811,610.825378 681.142273,619.405945 674.201538,626.713257 
	C667.185181,634.100220 658.659119,634.970947 649.366272,632.084595 
	C645.871399,630.998962 644.574097,629.174255 646.242493,625.407410 
	C649.342712,618.407837 652.092896,611.252563 654.950195,604.146606 
	C655.614868,602.493591 656.606445,600.889709 656.330505,598.924805 
	C653.255005,597.408081 651.040222,598.898499 649.093872,600.775574 
	C645.251892,604.480835 643.813293,609.093872 644.215759,614.395325 
	C644.518005,618.377808 639.642822,622.644104 635.667664,621.984436 
	C633.585999,621.639038 633.341248,619.744263 632.882874,618.226379 
	C629.342590,606.500610 638.370911,589.558533 650.367798,585.298035 
	C662.406494,581.022583 675.370850,587.389954 680.844849,600.577026 
M660.700134,620.663757 
	C666.237427,620.027466 669.257812,616.521606 670.335144,611.451355 
	C671.167786,607.532593 669.939758,604.055359 665.554810,601.249878 
	C663.157776,607.372925 660.869263,613.121033 658.681519,618.907227 
	C658.331238,619.833618 659.126099,620.380005 660.700134,620.663757 
z"/>
<path fill="#000000" opacity="1.000000" stroke="none" 
	d="
M202.666489,343.902893 
	C190.200775,340.510406 182.691849,330.542053 183.501816,318.895996 
	C184.333847,306.932861 194.185394,296.166718 205.862823,294.880829 
	C213.260010,294.066254 219.497681,296.941162 224.916809,301.901947 
	C227.336197,304.116730 227.089508,305.835480 224.854614,308.093475 
	C219.353409,313.651520 214.042999,319.399567 208.705627,325.117676 
	C207.492981,326.416809 205.831818,327.447388 205.535873,329.723541 
	C208.430756,331.939270 211.443146,331.140961 214.246658,329.689026 
	C218.571838,327.449036 221.738953,323.982300 222.627151,319.100952 
	C223.247879,315.689697 225.080750,314.862061 228.169479,314.870422 
	C234.102615,314.886505 235.263824,316.178864 234.123276,322.062592 
	C231.958221,333.231354 218.950348,344.134918 207.557190,344.288086 
	C206.066574,344.308167 204.573044,344.113434 202.666489,343.902893 
M196.426254,314.022858 
	C195.077759,317.235901 194.686890,320.318665 197.888474,323.447723 
	C202.572113,318.705292 207.448227,314.412750 211.274033,308.945648 
	C205.204254,305.777466 201.015961,307.179230 196.426254,314.022858 
z"/>
<path fill="#000000" opacity="1.000000" stroke="none" 
	d="
M159.528259,415.612762 
	C165.099579,411.273895 167.510788,405.919006 166.353104,399.216492 
	C165.364975,393.495605 170.550674,394.733551 173.141190,393.242035 
	C175.446838,391.914551 176.647797,393.644348 177.473221,395.802856 
	C181.885727,407.341797 172.254852,425.818970 159.659927,429.845947 
	C146.747726,433.974335 132.223694,425.727692 129.252869,412.151245 
	C127.133621,402.466431 130.152298,393.947083 137.297668,387.192566 
	C143.803833,381.042236 151.617523,379.890808 160.053360,382.617676 
	C165.642059,384.424225 165.907745,384.995270 163.796906,390.345764 
	C160.450226,398.828857 157.102036,407.311340 153.793716,415.694641 
	C155.960907,417.605621 157.572525,416.402466 159.528259,415.612762 
M140.298386,404.663116 
	C140.102264,408.189423 141.002411,411.147797 144.765320,413.171661 
	C147.908478,407.158722 150.058868,401.064545 152.405121,394.771179 
	C145.231033,394.168488 142.195862,396.664917 140.298386,404.663116 
z"/>
<path fill="#000000" opacity="1.000000" stroke="none" 
	d="
M608.376221,348.299622 
	C606.908264,349.475464 605.563354,349.346924 604.244080,349.179474 
	C594.842957,347.986267 584.341858,336.955536 581.990051,325.830933 
	C580.001038,316.423035 584.926025,306.347229 594.111755,301.031586 
	C604.801453,294.845612 618.474609,298.317871 626.256348,309.194672 
	C633.602356,319.462433 632.163513,332.527313 622.929565,340.774628 
	C620.602051,342.853516 618.940063,343.052582 616.724792,340.569092 
	C610.206848,333.261993 603.498291,326.124939 596.711304,318.755127 
	C593.197937,321.742401 594.434509,325.003418 595.558777,328.006836 
	C596.942871,331.704254 599.573486,334.489960 603.093872,336.360229 
	C610.115906,340.090790 610.118469,340.085999 608.376221,348.299622 
M617.777710,325.627136 
	C619.631165,319.914124 618.663757,315.815216 614.397156,312.845245 
	C611.060669,310.522705 607.481750,308.998993 603.043274,312.570190 
	C608.268005,316.947296 610.691772,323.578918 617.777710,325.627136 
z"/>
<path fill="#000000" opacity="1.000000" stroke="none" 
	d="
M522.115234,770.272583 
	C516.608765,767.664246 512.892822,763.788940 510.163544,758.802063 
	C508.632019,756.003662 509.082397,754.342773 512.002380,752.880249 
	C519.298889,749.225830 526.486267,745.353027 533.705688,741.545654 
	C535.146301,740.785950 536.534790,739.927368 538.001770,739.083130 
	C532.790466,733.297791 523.553406,735.106262 518.091125,742.683350 
	C516.773865,744.510742 516.053040,746.670654 512.741211,745.713989 
	C505.203979,743.536743 504.121765,741.435974 509.010254,735.203491 
	C515.587280,726.818176 524.534607,722.508179 535.174866,723.217896 
	C544.666809,723.851013 551.332642,729.412415 554.731201,738.161499 
	C558.252808,747.227295 557.260254,756.121277 550.224060,763.211487 
	C542.577026,770.917236 533.400452,774.461914 522.115234,770.272583 
M538.109009,758.705139 
	C542.122742,756.072021 544.339233,752.697327 543.089600,746.675293 
	C536.533081,750.084961 530.746338,753.094299 524.536560,756.323608 
	C528.627869,760.879700 532.786072,761.268250 538.109009,758.705139 
z"/>
<path fill="#000000" opacity="1.000000" stroke="none" 
	d="
M623.623047,701.096558 
	C609.354431,704.696838 596.229492,696.866028 593.072327,683.213257 
	C590.057251,670.175110 600.808533,654.241028 614.450134,651.755859 
	C624.255127,649.969666 632.181580,653.560730 638.105103,661.251831 
	C644.355347,669.367188 644.179260,678.225403 639.677124,687.071289 
	C636.306519,693.694092 631.074951,698.416687 623.623047,701.096558 
M606.177734,673.543274 
	C604.967651,683.011902 613.989807,691.123047 622.177185,687.927246 
	C627.007080,686.041931 630.138977,681.100647 629.621399,676.182312 
	C629.100098,671.228027 623.982605,666.114136 618.720398,665.289124 
	C612.992676,664.391113 609.293762,666.643311 606.177734,673.543274 
z"/>
<path fill="#000000" opacity="1.000000" stroke="none" 
	d="
M290.802429,283.641266 
	C285.227600,290.579071 278.478943,294.860168 269.832153,295.368713 
	C258.079254,296.059906 249.789825,290.485413 245.558655,279.431976 
	C241.995773,270.124390 244.768646,259.955261 253.242233,253.078598 
	C261.659515,246.247650 271.099091,243.205215 281.501648,248.229279 
	C290.760223,252.700851 295.122620,260.591492 295.256439,270.760742 
	C295.317230,275.378906 293.507904,279.510040 290.802429,283.641266 
M261.999817,261.379547 
	C261.084259,262.543427 259.898529,263.583984 259.300781,264.892975 
	C256.950562,270.039459 258.423706,274.635071 261.782959,278.794128 
	C264.709473,282.417480 268.617706,283.533234 272.986542,282.358643 
	C277.565979,281.127441 280.554901,277.959259 281.157288,273.244751 
	C281.795258,268.251831 279.645264,264.039978 275.718811,261.070679 
	C271.544006,257.913574 267.026550,258.298157 261.999817,261.379547 
z"/>
<path fill="#000000" opacity="1.000000" stroke="none" 
	d="
M390.921997,216.980957 
	C395.942963,221.299149 398.596924,226.413712 399.586761,232.642914 
	C400.222717,236.645370 398.961914,237.986526 395.059723,238.354004 
	C385.669373,239.238281 376.314514,240.499191 366.864136,241.617798 
	C368.367157,246.405396 372.512573,249.036591 377.722809,248.521164 
	C381.036041,248.193405 384.258087,247.355240 387.066772,245.322098 
	C389.864563,243.296890 396.911987,246.307571 397.510132,249.777847 
	C397.848236,251.739548 396.202118,252.746552 395.035736,253.845581 
	C385.912659,262.441833 367.384094,262.381775 358.138702,253.774811 
	C349.144287,245.401489 348.016022,231.333694 355.552521,221.529297 
	C363.481781,211.213913 379.021088,209.100555 390.921997,216.980957 
M383.319855,230.649643 
	C384.888458,230.386444 385.154236,229.548370 384.525391,228.164139 
	C382.917358,224.624466 377.658447,222.506104 372.887787,223.527191 
	C368.140259,224.543335 365.562378,227.566254 365.428894,232.787384 
	C371.196228,232.097900 376.897278,231.416367 383.319855,230.649643 
z"/>
<path fill="#000000" opacity="1.000000" stroke="none" 
	d="
M672.182739,499.017029 
	C665.052246,502.968597 663.124817,510.624786 666.943665,518.504089 
	C668.732666,522.195312 665.504395,528.348206 661.555054,528.778748 
	C660.417175,528.902893 659.728333,528.170532 659.009033,527.476318 
	C651.173767,519.914673 651.909241,499.995239 660.360352,490.939636 
	C669.024170,481.656097 684.373047,481.067596 693.704468,489.814087 
	C701.734558,497.340881 703.313660,506.740845 700.308472,516.855530 
	C697.316956,526.924316 689.803223,531.830872 679.622498,532.966919 
	C674.291321,533.561768 672.971619,532.464417 673.028870,527.108398 
	C673.110657,519.454468 673.448975,511.803436 673.548157,504.149445 
	C673.570374,502.429260 674.293884,500.440979 672.182739,499.017029 
M683.909546,518.713196 
	C688.962097,516.079834 691.320007,512.204102 690.548767,507.277069 
	C689.869385,502.936462 687.755859,499.717346 683.040955,498.749908 
	C681.734009,504.262268 681.909546,515.382507 683.909546,518.713196 
z"/>
<path fill="#000000" opacity="1.000000" stroke="none" 
	d="
M248.240845,699.365662 
	C250.322556,701.608826 248.521835,702.980530 247.526382,704.358154 
	C243.723267,709.621033 239.752945,714.763916 235.987762,720.053223 
	C231.711044,726.061279 232.002365,730.429321 236.697754,734.063293 
	C241.599777,737.857056 246.959351,737.010376 251.410858,731.414429 
	C255.451859,726.334412 259.304871,721.097595 263.068909,715.807678 
	C264.840973,713.317139 266.318359,712.669434 269.128326,714.603760 
	C277.413788,720.307068 277.541016,720.222778 271.648254,728.290344 
	C265.166992,737.163757 258.599182,745.974060 252.040924,754.790955 
	C251.268066,755.830017 250.317780,756.737122 248.988556,758.219727 
	C245.907990,754.237122 238.780777,754.358398 239.646393,746.848145 
	C234.710007,746.349487 229.853043,745.059937 225.629654,741.693542 
	C217.682404,735.358704 215.168869,726.408203 220.403534,717.813293 
	C225.322906,709.735901 231.362457,702.340393 236.916077,694.649841 
	C238.128174,692.971313 239.499268,692.836182 241.156754,694.116394 
	C243.395416,695.845398 245.717789,697.466125 248.240845,699.365662 
z"/>
<path fill="#000000" opacity="1.000000" stroke="none" 
	d="
M299.409180,778.107666 
	C288.453796,779.462646 279.559265,776.284790 272.594727,768.246399 
	C266.108154,760.759705 265.249023,750.615051 270.125336,741.724792 
	C274.891479,733.035400 283.749786,728.245667 293.377899,729.537964 
	C304.585083,731.042236 313.271729,736.394836 317.089752,747.473511 
	C320.411133,757.111145 317.318634,765.465698 310.317261,772.503906 
	C307.424011,775.412292 303.772552,777.019348 299.409180,778.107666 
M285.546539,744.961426 
	C283.598541,746.875671 282.365051,749.216614 281.668488,751.816772 
	C279.834930,758.660767 283.876831,764.940430 290.588165,765.767334 
	C296.203979,766.459290 300.572235,763.899292 302.885040,758.560791 
	C305.179260,753.265320 304.362762,747.988770 300.765350,744.862305 
	C296.658020,741.292847 291.410400,741.147644 285.546539,744.961426 
z"/>
<path fill="#000000" opacity="1.000000" stroke="none" 
	d="
M178.850342,609.379028 
	C184.099167,620.803894 184.094482,620.792175 172.764832,625.315063 
	C164.419312,628.646729 156.078735,631.991150 147.753098,635.372070 
	C139.071350,638.897644 140.642975,638.940369 137.052902,630.564697 
	C136.016235,628.146179 134.381775,625.575989 138.338440,623.890808 
	C131.922760,618.523621 127.743797,612.843811 127.526443,604.800781 
	C127.317528,597.069580 130.682739,591.436951 137.387207,588.279419 
	C145.655457,584.385376 154.277756,581.245361 162.729233,577.736511 
	C164.843323,576.858704 166.246399,577.383240 167.051682,579.519775 
	C167.110321,579.675354 167.166687,579.833191 167.241364,579.981262 
	C171.979202,589.380981 171.977219,589.375610 162.327972,593.284668 
	C157.392120,595.284180 152.396713,597.155273 147.552582,599.357910 
	C141.704056,602.017334 139.997879,605.830872 142.013031,610.868469 
	C144.213379,616.369019 148.736298,618.817017 154.429169,616.914917 
	C160.891006,614.755798 167.166611,612.041138 173.534363,609.597168 
	C175.173203,608.968201 176.770355,607.604004 178.850342,609.379028 
z"/>
<path fill="#000000" opacity="1.000000" stroke="none" 
	d="
M158.044708,373.192566 
	C152.876511,371.889893 147.774078,372.056519 143.091949,369.790924 
	C144.359146,365.874146 146.866348,363.121521 148.645416,359.967468 
	C149.778412,357.958801 151.621048,358.242737 153.491043,358.587952 
	C160.683670,359.915833 167.876266,361.246277 175.083450,362.491455 
	C176.981445,362.819336 178.931778,362.844360 181.773117,363.086365 
	C177.268036,356.530029 173.277359,350.637329 169.198776,344.806122 
	C162.747559,335.582764 162.759018,335.121674 170.643021,326.311005 
	C172.714340,326.291870 173.268311,328.138855 174.155334,329.412201 
	C181.864883,340.479370 189.409119,351.663116 197.228226,362.651642 
	C199.432922,365.749939 199.278519,368.129364 197.212402,371.158844 
	C191.390228,379.695557 193.789429,379.284607 183.565628,377.424774 
	C175.225037,375.907471 166.841232,374.627686 158.044708,373.192566 
z"/>
<path fill="#000000" opacity="1.000000" stroke="none" 
	d="
M673.381348,543.179321 
	C682.236572,541.389771 690.680786,539.710632 699.098694,538.036743 
	C701.291687,546.560547 698.011780,552.029358 690.152649,553.586670 
	C682.529541,555.097168 674.914185,556.646973 665.910034,558.458252 
	C670.562378,561.663208 674.149292,564.141052 677.743713,566.608032 
	C680.347717,568.395386 682.962891,570.166382 685.570923,571.947815 
	C693.342773,577.256348 694.082520,580.441528 689.476074,589.304565 
	C686.138855,588.582214 683.777588,586.124817 681.072021,584.317749 
	C671.257385,577.762268 661.549561,571.044983 651.670288,564.589417 
	C648.841614,562.740967 647.968445,560.621643 648.798401,557.490906 
	C649.264832,555.731689 649.619751,553.929810 649.853882,552.125000 
	C650.248291,549.085266 651.857849,547.441101 654.897827,546.882141 
	C660.937988,545.771545 666.947937,544.496765 673.381348,543.179321 
z"/>
<path fill="#000000" opacity="1.000000" stroke="none" 
	d="
M211.582092,667.845154 
	C219.678253,668.391296 223.748566,673.841370 226.536789,680.196045 
	C229.132065,686.110962 227.461807,691.601379 222.850143,696.141968 
	C219.052155,699.881470 215.266098,703.633118 211.474396,707.378967 
	C210.135651,708.701538 208.611923,710.074524 210.494293,711.981323 
	C214.638184,716.179016 210.292297,717.850647 208.178406,720.281555 
	C205.486465,723.377197 203.607162,721.336609 201.614197,719.437866 
	C201.271866,719.111694 200.752731,718.971008 200.299591,718.736572 
	C196.716583,719.553528 195.659531,724.768372 191.954041,724.316345 
	C189.072739,723.964783 187.548340,720.495605 185.482285,718.373474 
	C179.392960,712.118652 189.441849,711.610107 189.367462,707.458984 
	C189.150513,703.209656 178.941559,701.498413 186.811508,694.831604 
	C194.015762,688.728760 194.343735,698.655945 199.486374,698.825134 
	C203.343750,695.084961 207.810577,690.890869 212.106247,686.528259 
	C214.120331,684.482788 214.628738,681.479553 212.120743,679.964294 
	C205.799332,676.145081 208.906219,672.195679 211.582092,667.845154 
z"/>
<path fill="#000000" opacity="1.000000" stroke="none" 
	d="
M244.430008,291.592377 
	C247.867462,295.911224 251.025803,299.999481 254.321320,303.974030 
	C256.168274,306.201569 256.354706,307.947266 253.709549,309.693909 
	C250.968948,311.503601 248.818802,314.185577 245.206055,315.587311 
	C239.991211,309.054291 234.802917,302.583252 229.646118,296.087219 
	C222.602692,287.214569 215.653290,278.266022 208.509857,269.474915 
	C206.429871,266.915192 206.115372,265.291626 208.993195,262.971252 
	C216.745651,256.720581 216.668549,256.565643 222.812393,264.276520 
	C229.974380,273.265167 237.078827,282.299652 244.430008,291.592377 
z"/>
<path fill="#000000" opacity="1.000000" stroke="none" 
	d="
M664.734070,666.298706 
	C650.057800,657.716553 635.760559,649.205566 621.299744,640.982239 
	C617.600586,638.878723 616.704834,637.165527 619.178101,633.304810 
	C624.838196,624.469299 622.981140,625.410828 631.308167,630.151611 
	C645.909607,638.464722 660.236450,647.260559 674.850220,655.551208 
	C678.658936,657.711975 679.005127,659.731750 676.536743,662.881714 
	C676.334229,663.140137 676.218384,663.465027 676.048889,663.751099 
	C671.202454,671.928528 672.366089,670.652039 664.734070,666.298706 
z"/>
<path fill="#000000" opacity="1.000000" stroke="none" 
	d="
M480.993774,787.925171 
	C480.394531,785.310913 478.968750,783.287292 479.279297,780.890442 
	C491.364258,773.844299 491.784515,772.737122 487.484894,759.057312 
	C486.140991,754.781494 484.833710,750.490662 483.338654,746.267212 
	C482.567535,744.088867 483.041931,742.644409 485.212341,741.997131 
	C488.517822,741.011230 491.635284,739.311340 495.548645,739.135803 
	C499.024628,746.658875 500.992371,754.724182 503.709351,762.512329 
	C505.567200,767.837769 507.082794,773.288330 509.087616,778.554871 
	C510.439667,782.106628 509.525269,783.953247 505.864410,784.468384 
	C502.464508,784.946655 499.014984,789.044434 495.469788,784.023071 
	C493.099548,786.703369 490.715820,789.173950 487.633820,790.885498 
	C484.217773,792.782654 482.002502,792.416565 480.993774,787.925171 
z"/>
<path fill="#000000" opacity="1.000000" stroke="none" 
	d="
M346.940796,775.749023 
	C345.684875,780.299133 344.556183,784.462341 343.446106,788.630493 
	C341.727264,795.084412 341.724304,795.117310 335.037231,793.358032 
	C332.132355,792.593811 328.346649,792.788086 328.833740,787.676086 
	C325.081268,788.662720 321.581909,789.656860 317.909332,789.236023 
	C314.642090,788.861633 312.972900,787.465332 314.116913,783.956848 
	C314.631439,782.378845 315.224548,780.804321 315.515350,779.180481 
	C316.015381,776.388672 317.344604,775.980896 320.091064,776.442017 
	C328.117798,777.789612 331.878845,775.336792 334.231781,767.512329 
	C335.903534,761.953064 337.337524,756.318970 338.746735,750.685486 
	C339.536621,747.527893 340.896179,746.410400 344.409821,747.321228 
	C353.743774,749.740784 353.807556,749.569214 351.390503,758.992310 
	C349.988312,764.458801 348.516693,769.907593 346.940796,775.749023 
z"/>
<path fill="#000000" opacity="1.000000" stroke="none" 
	d="
M420.338989,248.114166 
	C420.319946,249.585846 420.317719,250.584000 420.289124,251.581375 
	C420.097015,258.281433 419.837067,258.513824 413.009796,258.137909 
	C405.905884,257.746765 405.439087,257.191498 405.848022,250.127151 
	C406.481659,239.182526 407.023041,228.232330 407.712067,217.291336 
	C407.855835,215.008987 406.648529,212.043213 410.057800,210.943115 
	C413.571991,209.809189 420.023712,211.668854 421.503998,214.151291 
	C421.739990,214.547073 422.131683,214.849991 422.510132,215.259384 
	C425.729553,213.778442 428.774902,212.027588 432.344299,211.708557 
	C435.492126,211.427231 437.621796,212.158417 437.299805,215.938568 
	C437.158966,217.592056 437.204132,219.261963 437.179260,220.924637 
	C437.143524,223.309738 436.185303,224.354965 433.562164,224.523605 
	C424.390869,225.113251 421.844025,227.879120 421.186737,237.212570 
	C420.941772,240.690994 420.626740,244.164520 420.338989,248.114166 
z"/>
<path fill="#000000" opacity="1.000000" stroke="none" 
	d="
M459.802734,254.952271 
	C462.930756,249.342697 466.633789,247.722244 471.270325,249.599213 
	C475.525970,251.321976 477.576111,255.342056 476.405640,259.669128 
	C475.236389,263.991669 471.433136,266.667908 467.071106,266.237610 
	C461.943481,265.731812 459.292236,261.795166 459.802734,254.952271 
z"/>
<path fill="#000000" opacity="1.000000" stroke="none" 
	d="
M430.299561,756.487244 
	C435.329346,751.626404 441.097412,751.323425 444.329285,755.616699 
	C446.997162,759.160767 447.315369,762.956482 444.427307,766.597717 
	C441.795685,769.915649 436.817963,770.720276 433.163574,768.554382 
	C429.318695,766.275452 428.220856,762.102844 430.299561,756.487244 
z"/>
</svg>